<?xml version="1.0" encoding="UTF-8"?>
<!DOCTYPE svg PUBLIC "-//W3C//DTD SVG 1.1//EN" "http://www.w3.org/Graphics/SVG/1.1/DTD/svg11.dtd">
<!-- Creator: CorelDRAW X8 -->
<svg xmlns="http://www.w3.org/2000/svg" xml:space="preserve" width="7.43883in" height="9.25797in" version="1.1" style="shape-rendering:geometricPrecision; text-rendering:geometricPrecision; image-rendering:optimizeQuality; fill-rule:evenodd; clip-rule:evenodd"
viewBox="0 0 7439 9258"
 xmlns:xlink="http://www.w3.org/1999/xlink">
 <defs>
  <style type="text/css">
   <![CDATA[
    .str0 {stroke:#332C2B;stroke-width:6.94488}
    .fil0 {fill:black}
    .fil2 {fill:red}
    .fil1 {fill:white}
    .fil3 {fill:white;fill-rule:nonzero}
   ]]>
  </style>
 </defs>
 <g id="Layer_x0020_1">
  <metadata id="CorelCorpID_0Corel-Layer"/>
  <path class="fil0" d="M2774 8593c-9,-34 8,-49 24,-72 14,-20 29,-38 46,-58 21,-23 77,-98 112,-96 10,38 -47,113 -65,136 -18,23 -73,96 -117,90zm-206 -496c-39,20 -55,118 29,75 19,-10 49,-25 36,-52 -8,-17 -37,-37 -65,-23zm2702 18c10,26 -30,70 -41,85 -62,82 -229,334 -213,427 5,34 23,68 47,79 53,25 31,-49 35,-77 13,-99 196,-407 266,-502 21,-30 94,-118 80,-168 -43,-9 -295,156 -343,188 -19,13 -36,24 -53,37 -7,5 -19,13 -25,19 -5,5 -8,6 -9,15 -1,66 198,-112 256,-103zm-1132 605c8,-27 -7,-39 -6,-66 3,-74 121,-283 155,-340 59,-99 108,-165 169,-256 18,-26 48,-64 44,-97 -41,-13 -203,92 -236,113 -38,24 -74,48 -109,71 -18,12 -109,66 -80,88 30,10 168,-111 229,-123 -14,89 -246,365 -246,477 0,22 14,74 23,87 9,11 20,16 28,24 9,9 12,20 29,22zm-2645 -206c-2,84 -43,132 46,159 120,35 253,-4 344,-82 22,-20 84,-92 84,-142 0,-39 -51,-122 -69,-154 -21,-36 -71,-112 -64,-163 8,-59 57,-104 123,-102 76,2 89,49 105,93l11 21c22,-54 82,-118 12,-166 -102,-71 -255,43 -308,134 -42,70 -34,116 0,188 48,102 138,167 70,247 -60,69 -150,128 -246,79 -139,-72 -22,-110 -84,-107 -2,0 -12,2 -12,2l-10 -5c0,0 -1,-1 -2,-2zm3338 -500c48,-13 60,45 51,86 -21,98 -129,180 -217,208 -111,34 -38,-235 166,-294zm-550 585c-19,23 -1,65 18,77 17,12 64,17 89,18 85,3 169,-45 231,-93 20,-15 42,-32 60,-48 50,-44 116,-115 157,-168 46,-62 90,-128 121,-203 142,-345 -287,-239 -384,-15 -25,59 -26,133 20,163 68,45 147,-14 178,0 43,19 -142,202 -183,233 -84,64 -134,91 -241,77 -34,-5 -39,-30 -66,-41zm1493 -550c87,-19 116,59 104,141 -17,111 -94,272 -164,350 -90,101 -270,187 -267,-43 2,-147 186,-417 327,-448zm181 109c4,-45 4,-114 -13,-152 -21,-45 -71,-40 -122,-24 -244,81 -425,274 -488,522 -16,59 6,96 32,132 24,34 54,50 113,54 106,8 169,-38 238,-97 29,-25 57,-58 83,-88 75,-88 145,-225 157,-347zm-3823 271c-11,-32 39,-72 60,-59 18,11 -31,66 -60,59zm-172 829l6 0c8,-9 13,-11 21,-18 8,-7 12,-12 20,-21 14,-15 25,-27 41,-41 30,-26 52,-57 79,-85 28,-28 55,-53 85,-79l172 -156c61,-50 115,-100 180,-149 23,-18 68,-56 98,-66 16,16 19,34 85,26 14,-2 34,-6 44,-12 16,-9 16,-19 31,-27 31,9 8,18 51,47 33,22 29,18 76,19 117,3 62,-53 149,-43 32,4 49,13 78,-4 45,-27 98,-151 154,-123 35,17 29,104 60,131 31,27 118,13 152,-7 49,-29 172,-154 180,-203 -33,4 -87,61 -117,88 -11,9 -21,20 -33,30 -69,54 -93,94 -137,-24 -10,-27 -30,-79 -21,-108 9,-25 43,-52 63,-68 24,-18 48,-39 74,-56 21,-15 23,-12 45,-23 13,-6 16,-21 12,-33 -17,-47 -122,48 -136,59 -16,12 -103,76 -127,66 -7,-6 3,-25 5,-31 59,-126 163,-292 244,-395 13,-16 24,-31 38,-47 14,-16 27,-33 40,-46 58,-59 126,-128 217,-122 86,5 72,59 86,80 78,10 61,-241 -146,-133 -32,17 -94,62 -118,87 -25,27 -53,49 -78,79 -8,9 -16,15 -24,24 -143,170 -224,283 -344,477 -40,65 -122,179 -182,232 -206,184 -127,-52 -53,-173 10,-17 33,-47 44,-56 5,-4 54,-30 28,-62 -40,-48 -239,68 -287,101 -108,75 -82,-15 -124,-1 -32,23 -20,45 -28,85 -5,28 -23,54 -37,74 -13,18 -36,48 -50,62 -38,39 -240,256 -291,262 -1,-55 99,-201 133,-271 19,-37 130,-242 113,-279 -37,-15 -111,6 -129,27 -2,28 22,26 11,56 -12,31 -52,60 -73,77 -42,38 -162,134 -217,145 -71,14 -117,-82 5,-145 33,-17 166,-79 138,-144 -16,-36 -71,-26 -106,-14 -108,36 -270,342 -129,348 106,5 146,-13 223,-67 18,-13 71,-51 94,-52 -3,82 -223,439 -305,523 -48,48 -113,111 -83,179z"/>
  <path class="fil1 str0" d="M6490 4553c61,0 110,50 110,110 0,61 -49,110 -110,110 -61,0 -110,-49 -110,-110 0,-60 49,-110 110,-110z"/>
  <path class="fil1 str0" d="M933 4553c61,0 110,50 110,110 0,61 -49,110 -110,110 -61,0 -110,-49 -110,-110 0,-60 49,-110 110,-110z"/>
  <path class="fil0" d="M3719 0c2055,0 3720,1665 3720,3719 0,2055 -1665,3720 -3720,3720 -2054,0 -3719,-1665 -3719,-3720 0,-2054 1665,-3719 3719,-3719zm0 71c2016,0 3649,1633 3649,3648 0,2016 -1633,3649 -3649,3649 -2015,0 -3648,-1633 -3648,-3649 0,-2015 1633,-3648 3648,-3648z"/>
  <path class="fil0" d="M3719 3471c216,-58 421,-73 786,-85 366,-11 1056,-341 853,-1109 381,424 385,1190 -290,1521 208,44 346,56 520,153 -340,358 -688,462 -1044,331 10,277 -229,668 -344,935 40,185 234,522 -67,573 -138,38 -266,127 -414,115 -147,12 -275,-77 -413,-115 -301,-51 -107,-388 -68,-573 -114,-267 -354,-658 -343,-935 -356,131 -704,27 -1044,-331 174,-97 312,-109 519,-153 -674,-331 -670,-1097 -289,-1521 -203,768 486,1098 853,1109 365,12 569,27 785,85zm0 -1541c40,193 86,375 141,546 212,-7 421,-166 630,-389 -50,196 -93,401 -130,614 128,-22 256,-123 382,-258 -65,255 -113,533 -146,830 -39,-3 -77,-5 -115,-7 66,-182 133,-411 178,-660 -157,106 -251,134 -306,136 -32,185 -58,376 -80,572 -57,-3 -113,-7 -170,-10 -244,-459 -347,-916 -384,-1374 -39,193 -85,375 -140,546 -212,-7 -422,-166 -630,-389 50,196 93,401 130,614 -128,-22 -256,-123 -383,-258 66,255 114,533 147,830 39,-3 77,-5 115,-7 -66,-182 -133,-411 -178,-660 156,106 251,134 306,136 31,185 58,376 80,572 56,-3 113,-7 169,-10 245,-459 348,-916 384,-1374zm-158 599c-77,229 -170,436 -280,616 -79,-238 -154,-517 -209,-816 270,182 416,208 489,200zm317 0c77,229 169,436 280,616 79,-238 154,-517 208,-816 -269,182 -415,208 -488,200zm197 3112c-181,-28 -530,-28 -711,0 237,127 474,127 711,0zm-711 -431c-17,76 51,61 107,119 29,29 37,89 13,115 -22,24 -73,16 -107,-18 -70,-70 -82,-139 -13,-216zm-38 -899c-23,-152 -136,-247 -361,-271 78,41 94,114 114,199 19,84 108,115 159,56 50,-59 69,-18 88,16zm-196 -361c370,279 448,672 317,1148 352,-28 114,97 -101,63 149,-498 97,-910 -216,-1211zm-217 129c-274,64 -433,-223 -811,-125 250,76 432,189 545,213 112,24 198,2 266,-88zm-1040 -1320c-37,449 131,817 701,1024 145,41 314,116 343,240 140,-129 151,-339 127,-571 -54,115 -63,270 -80,424 -181,-141 -397,-163 -638,-300 -284,-157 -406,-455 -453,-817zm2202 2451c17,76 -51,61 -107,119 -29,29 -37,89 -14,115 23,24 74,16 108,-18 70,-70 82,-139 13,-216zm38 -899c23,-152 135,-247 360,-271 -77,41 -93,114 -113,199 -19,84 -109,115 -159,56 -50,-59 -69,-18 -88,16zm195 -361c-369,279 -447,672 -316,1148 -352,-28 -114,97 101,63 -149,-498 -97,-910 215,-1211zm218 129c274,64 433,-223 810,-125 -249,76 -431,189 -544,213 -112,24 -198,2 -266,-88zm1040 -1320c37,449 -131,817 -701,1024 -145,41 -314,116 -343,240 -141,-129 -152,-339 -127,-571 53,115 63,270 80,424 180,-141 397,-163 638,-300 284,-157 405,-455 453,-817z"/>
  <path class="fil2" d="M3719 202c-1942,0 -3517,1575 -3517,3517 0,1943 1575,3517 3517,3517 1943,0 3517,-1574 3517,-3517 0,-1942 -1574,-3517 -3517,-3517zm0 1187c-1287,0 -2330,1043 -2330,2330 0,1287 1043,2331 2330,2331 1287,0 2331,-1044 2331,-2331 0,-1287 -1044,-2330 -2331,-2330z"/>
  <path class="fil3" d="M781 5190l667 -346 75 144 -667 346 -75 -144zm289 485l451 -397c38,-33 75,-50 111,-50 37,-1 69,15 98,48 23,26 35,55 35,88 0,32 -12,65 -34,99l-251 372 412 -363 102 116 -467 411c-30,26 -63,38 -100,36 -38,-2 -69,-17 -94,-46 -47,-53 -47,-116 2,-188l248 -371 -410 362 -103 -117zm669 666l405 -632 324 208c47,30 74,63 81,100 8,36 -4,79 -35,127l-226 353c-28,44 -62,70 -100,80 -39,10 -79,2 -120,-25l-329 -211zm455 -407l-230 358 138 89c19,13 34,17 45,15 10,-3 23,-16 37,-39l165 -257 12 -18c5,-9 6,-19 0,-30 -5,-10 -15,-20 -29,-29l-138 -89zm540 293c16,-56 46,-94 92,-112 28,-13 67,-11 117,3l184 53c107,31 146,99 116,203l-118 410c-30,104 -99,140 -208,108l-182 -52c-50,-15 -85,-35 -104,-61 -12,-17 -19,-38 -21,-63 -3,-24 0,-51 8,-78l116 -411zm207 60c-20,-6 -35,-7 -44,-3 -8,5 -16,17 -21,37l-90 310c-6,20 -6,34 -1,43 5,9 18,16 38,22l95 27c20,6 34,7 43,3 9,-5 16,-16 21,-33l91 -315c5,-20 6,-34 1,-43 -5,-8 -18,-15 -38,-21l-95 -27zm540 701l-13 -601c-1,-50 10,-89 33,-117 23,-29 56,-43 100,-44 35,-1 65,9 89,30 25,21 43,51 54,90l123 432 -12 -549 155 -3 13 621c1,40 -12,73 -37,101 -26,27 -57,41 -96,42 -71,1 -119,-40 -142,-123l-124 -429 12 547 -155 3zm1413 -215l-300 85c-115,33 -187,-1 -216,-101l-118 -414c-14,-50 -12,-92 7,-127 18,-36 51,-60 100,-74l321 -91 45 156 -255 72 -26 8c-5,1 -11,6 -18,12 -8,12 -10,27 -5,44l23 79 316 -90 45 156 -317 91 23 79c9,33 27,45 54,37l23 -6 253 -72 45 156zm414 -561l-97 62c-35,23 -73,31 -113,22 -40,-8 -71,-29 -94,-64l-85 -133c-13,-20 -21,-43 -25,-70 -4,-26 -2,-49 5,-67 10,-25 33,-49 68,-72l276 -177 88 136 -219 141c-33,21 -43,42 -30,63l28 42c15,24 38,27 67,8l98 -63c39,-25 77,-34 114,-26 36,8 68,31 93,70l82 127c26,41 35,81 25,121 -9,40 -34,73 -76,100l-268 173 -88 -137 220 -141c32,-21 40,-44 24,-68l-29 -45c-13,-21 -29,-24 -48,-12l-16 10zm638 -128l-517 -544 118 -112 517 544 -118 112zm353 -373l-443 -528c-46,-53 -52,-107 -17,-162 33,-52 84,-70 153,-52l665 178 -90 143 -164 -44 -122 193 108 129 -90 143zm-297 -572l175 177 71 -112 -246 -65z"/>
  <path class="fil3" d="M1235 4083l-749 52 -27 -376c-3,-48 8,-88 33,-119 25,-31 60,-48 106,-51l182 -13c46,-3 82,8 111,32 28,25 44,60 47,106l16 226 269 -19 12 162zm-599 -121l153 -11 -11 -158c-1,-16 -2,-26 -3,-30 -1,-5 -4,-9 -8,-13 -5,-4 -9,-7 -13,-9 -5,-1 -11,-2 -20,-1l-67 5c-31,2 -44,20 -42,55l11 162zm575 -468l-604 -333c-62,-33 -87,-81 -74,-144 12,-62 53,-96 124,-104l685 -74 -33 165 -169 19 -44 223 148 82 -33 166zm-483 -427l227 102 26 -129 -253 27zm685 -356l-655 -368 188 -335c28,-48 59,-77 95,-87 36,-9 80,0 130,28l365 205c45,26 74,57 86,95 12,38 6,79 -18,122l-191 340zm-433 -430l371 209 81 -144c11,-20 15,-35 11,-45 -3,-10 -16,-22 -40,-35l-266 -150 -19 -10c-9,-6 -19,-5 -30,1 -10,6 -20,16 -28,30l-80 144zm780 -159l-297 -621c-32,-63 -24,-117 23,-161 46,-42 100,-47 161,-12l601 338 -123 116 -148 -83 -167 155 73 153 -123 115zm-145 -627l126 215 96 -91 -222 -124zm755 96l-267 -538c-22,-45 -29,-85 -20,-120 8,-35 32,-63 72,-82 31,-16 62,-19 93,-11 32,9 61,28 87,58l295 338 -244 -491 138 -69 277 557c17,36 21,71 9,107 -11,35 -34,61 -68,78 -64,32 -125,15 -181,-50l-295 -335 243 489 -139 69zm1134 -813l39 237c7,39 9,66 8,82 -1,16 -8,34 -19,56 -14,25 -29,42 -45,53 -17,10 -42,18 -76,24l-183 30c-38,6 -68,7 -89,4 -21,-4 -43,-14 -64,-30 -25,-18 -41,-41 -49,-69 -1,-6 -4,-20 -8,-41 -5,-22 -8,-36 -9,-44l-57 -348c-8,-47 -10,-80 -6,-101 4,-20 16,-41 35,-62 15,-15 29,-26 44,-32 14,-6 41,-12 80,-18l300 -49 27 160 -266 44 -28 4c-9,2 -15,6 -20,12 -4,7 -6,15 -4,24l4 23 50 309 5 27c2,8 8,14 15,19 8,5 16,7 25,6l22 -4 103 -17c34,-6 50,-19 46,-41l-3 -20 -35 -213 158 -25zm1046 565l-330 -82c-40,-10 -72,-34 -96,-73 -20,-33 -24,-75 -11,-126l100 -401c9,-37 19,-63 29,-80 10,-16 24,-30 44,-43 17,-9 35,-14 54,-14 20,0 49,5 87,14l305 76 -40 158 -261 -65c-39,-10 -61,-4 -66,16l-4 18 -75 301c-7,26 -8,44 -2,54 5,10 20,18 45,24l260 65 -39 158zm596 302l-272 -152c-104,-59 -131,-134 -80,-225l211 -376c25,-44 57,-73 95,-84 38,-12 79,-6 122,19l292 164 -80 141 -230 -129 -24 -14c-5,-2 -12,-4 -22,-3 -14,2 -25,11 -34,27l-40 72 287 161 -80 141 -287 -161 -41 72c-16,30 -12,51 12,65l21 12 230 129 -80 141zm160 101l451 -423c32,-30 67,-43 104,-41 36,2 70,19 100,52 23,25 37,52 40,81 4,30 -3,57 -21,82l-253 365 388 -220c27,-16 55,-21 84,-16 29,6 55,21 78,46 31,33 47,68 46,104 -1,35 -17,69 -50,99l-452 423 -104 -112 392 -367 -411 223c-61,34 -109,31 -146,-8 -37,-40 -37,-89 0,-148l252 -394 -392 367 -106 -113zm801 1180l-123 -287c-47,-110 -23,-186 73,-227l396 -170c47,-20 89,-24 127,-10 37,14 65,44 85,90l132 307 -149 64 -105 -243 -10 -25c-2,-5 -7,-10 -15,-16 -13,-7 -28,-6 -44,1l-76 32 130 303 -149 64 -130 -303 -76 33c-31,13 -41,33 -30,58l9 22 104 242 -149 65zm60 176l596 -77c49,-7 89,0 120,20 31,19 49,51 54,94 5,35 -2,65 -20,92 -18,27 -46,48 -83,64l-416 169 544 -71 20 152 -617 81c-39,5 -74,-4 -103,-26 -30,-22 -48,-52 -53,-90 -9,-71 27,-123 107,-155l413 -169 -542 70 -20 -154zm655 780l161 22 -67 481 -161 -23 22 -161 -583 -81 23 -161 583 81 22 -158z"/>
  <path class="fil1" d="M902 4448c55,0 99,45 99,99 0,55 -44,99 -99,99 -55,0 -99,-44 -99,-99 0,-54 44,-99 99,-99z"/>
  <path class="fil1" d="M6433 4448c55,0 99,45 99,99 0,55 -44,99 -99,99 -55,0 -99,-44 -99,-99 0,-54 44,-99 99,-99z"/>
 </g>
</svg>
